<svg xmlns="http://www.w3.org/2000/svg" width="208" height="158" viewBox="0 0 208 158">
  <g id="NoImage" transform="translate(-442 -690)">
    <rect id="長方形_1" data-name="長方形 1" width="208" height="158" transform="translate(442 690)" fill="#f5f5f5"/>
    <g id="no-image" transform="translate(534 753)">
      <path id="パス_1" data-name="パス 1" d="M24,4H4A3,3,0,0,0,1,7V21a2.87,2.87,0,0,0,.28,1.25,1,1,0,0,0,.76.56h.14a1,1,0,0,0,.75-.34l7-7.93,3.87,4.83a1,1,0,0,0,1.43.13L19,16.32l3.34,2.86a1,1,0,0,0,1.05.16,3.94,3.94,0,0,1,2.4-.26,1,1,0,0,0,1.2-1V7A3,3,0,0,0,24,4Z" fill="#afcfef"/>
      <path id="パス_2" data-name="パス 2" d="M23.64,17.66l-4-3.42a1,1,0,0,0-1.3,0l-3.61,3.09-4-5a1.007,1.007,0,0,0-1.5.01l-7.8,8.82a1,1,0,0,0-.16,1.07A3,3,0,0,0,4,24H20a1,1,0,0,0,1-1,4,4,0,0,1,1.17-2.83,3.89,3.89,0,0,1,1.22-.83,1,1,0,0,0,.26-1.68Z" fill="#a7ffb5"/>
      <path id="パス_3" data-name="パス 3" d="M28.54,26.54a5.006,5.006,0,1,1-7.08-7.08,4.89,4.89,0,0,1,1.53-1,4.982,4.982,0,0,1,5.55,8.08Z" fill="#fff"/>
      <path id="パス_4" data-name="パス 4" d="M25,29a5.991,5.991,0,1,1,4.24-1.75h0A6,6,0,0,1,25,29Zm0-10a4.005,4.005,0,1,0,2.84,1.17,3.9,3.9,0,0,0-2-1.08A4,4,0,0,0,25,19Zm3.55,7.54Z" fill="#a7ffb5"/>
      <path id="パス_5" data-name="パス 5" d="M21.46,27.54a1,1,0,0,1-.71-1.71l7.07-7.07a1,1,0,0,1,1.41,1.41l-7.07,7.07A1,1,0,0,1,21.46,27.54Z" fill="#a7ffb5"/>
      <circle id="楕円形_1" data-name="楕円形 1" cx="2" cy="2" r="2" transform="translate(14 8)" fill="#fff"/>
    </g>
  </g>
</svg>
